<?xml version="1.0" encoding="UTF-8"?>
<svg id="Layer_1" data-name="Layer 1" xmlns="http://www.w3.org/2000/svg" viewBox="0 0 1422 1609.42">
  <defs>
    <style>
      .cls-1 {
        fill: #11887f;
      }

      .cls-2 {
        fill: #1c9d96;
      }

      .cls-3 {
        fill: #118a7f;
      }

      .cls-4 {
        fill: #fdfefd;
      }

      .cls-5 {
        fill: #fefefe;
      }

      .cls-6 {
        fill: #1b9d95;
      }
    </style>
  </defs>
  <path class="cls-2" d="M715.15,1607.35c-1.04.99-2.05,1.57-3.03,1.85v-2c.87.21,1.88.27,3.03.15Z"/>
  <path class="cls-2" d="M98.71,327.99c1.3,25.81-.17,51.75.2,77.62,1.37,96.41-4.5,192.94,3.87,289.23,18.39,211.52,104.8,391.94,250.88,544.52,97.8,102.14,214.6,178.79,336.97,247.66,6.45,3.63,12.41,8.67,19.89,10.18.52.11,1.06.2,1.6.27v111.73c-3.59,1.06-6.82-1.86-9.71-3.37-163.59-85.44-316.91-185.29-442.41-322.67C116.42,1126,32.16,941.31,7.24,729.59,1.52,680.95.16,632.26.23,583.41.38,471.02.54,358.62,0,246.24c-.07-13.75,3.46-18.68,17.59-21.46C232.04,182.57,441.56,124.19,640.47,31.7c23.31-10.84,45.64-23.91,70.41-31.49.42-.09.84-.15,1.24-.18v108.79c-.57.05-1.13.13-1.68.22-5.69.96-10.64,4.07-15.83,6.47-106.75,49.55-216.58,91.01-329.15,125.26-81.56,24.81-164.36,44.84-247.63,62.85-14.86,3.22-19.89,9.12-19.12,24.37Z"/>
  <path class="cls-5" d="M707.28,900.31s-.01.03-.01.05c.01-.01.02-.03.03-.04-.01,0-.01-.01-.02-.01ZM710.95,346.66c.42.44.81.88,1.17,1.34v-.87c-.39-.16-.78-.31-1.17-.47ZM707.28,900.31s-.01.03-.01.05c.01-.01.02-.03.03-.04-.01,0-.01-.01-.02-.01ZM710.95,346.66c.42.44.81.88,1.17,1.34v-.87c-.39-.16-.78-.31-1.17-.47ZM707.28,900.31s-.01.03-.01.05c.01-.01.02-.03.03-.04-.01,0-.01-.01-.02-.01ZM710.95,346.66c.42.44.81.88,1.17,1.34v-.87c-.39-.16-.78-.31-1.17-.47ZM707.28,900.31s-.01.03-.01.05c.01-.01.02-.03.03-.04-.01,0-.01-.01-.02-.01ZM710.95,346.66c.42.44.81.88,1.17,1.34v-.87c-.39-.16-.78-.31-1.17-.47ZM707.28,900.31s-.01.03-.01.05c.01-.01.02-.03.03-.04-.01,0-.01-.01-.02-.01ZM710.95,346.66c.42.44.81.88,1.17,1.34v-.87c-.39-.16-.78-.31-1.17-.47ZM712.12,1423.88v5.54c.97-.36,1.97-1.07,3-2.27-1.38-.99-2.34-2.09-3-3.27ZM707.28,900.31s-.01.03-.01.05c.01-.01.02-.03.03-.04-.01,0-.01-.01-.02-.01ZM710.95,346.66c.42.44.81.88,1.17,1.34v-.87c-.39-.16-.78-.31-1.17-.47ZM707.28,900.31s-.01.03-.01.05c.01-.01.02-.03.03-.04-.01,0-.01-.01-.02-.01ZM710.95,346.66c.42.44.81.88,1.17,1.34v-.87c-.39-.16-.78-.31-1.17-.47ZM707.28,900.31s-.01.03-.01.05c.01-.01.02-.03.03-.04-.01,0-.01-.01-.02-.01ZM710.95,346.66c.42.44.81.88,1.17,1.34v-.87c-.39-.16-.78-.31-1.17-.47ZM707.28,900.31s-.01.03-.01.05c.01-.01.02-.03.03-.04-.01,0-.01-.01-.02-.01ZM710.95,346.66c.42.44.81.88,1.17,1.34v-.87c-.39-.16-.78-.31-1.17-.47ZM707.28,900.31s-.01.03-.01.05c.01-.01.02-.03.03-.04-.01,0-.01-.01-.02-.01ZM710.95,346.66c.42.44.81.88,1.17,1.34v-.87c-.39-.16-.78-.31-1.17-.47ZM707.28,900.31s-.01.03-.01.05c.01-.01.02-.03.03-.04-.01,0-.01-.01-.02-.01ZM710.95,346.66c.42.44.81.88,1.17,1.34v-.87c-.39-.16-.78-.31-1.17-.47ZM707.28,900.31s-.01.03-.01.05c.01-.01.02-.03.03-.04-.01,0-.01-.01-.02-.01ZM710.95,346.66c.42.44.81.88,1.17,1.34v-.87c-.39-.16-.78-.31-1.17-.47ZM707.28,900.31s-.01.03-.01.05c.01-.01.02-.03.03-.04-.01,0-.01-.01-.02-.01ZM710.95,346.66c.42.44.81.88,1.17,1.34v-.87c-.39-.16-.78-.31-1.17-.47Z"/>
  <path class="cls-3" d="M1262.9,377.77c-.92,74.71-.84,149.45-.63,224.17.77,267.06-103.06,485.73-304.4,659.49-74.66,64.43-156.84,117.8-242.75,165.72-1.38-.99-2.34-2.09-3-3.27v-109.52c.78.1,1.55.2,2.3.35,5.89-3.86,11.7-7.85,17.68-11.55,71.66-44.39,139.9-93.31,200.71-151.98,130.54-125.95,209-277.76,227.18-459.27,8.24-82.17,2.55-164.62,4.34-246.92.23-10.37-5.36-12.5-13.51-14.59-35.28-9.06-70.59-18.05-105.6-28.07-113.09-32.36-223.78-71.42-330.83-120.41-.77-.05-1.53-.05-2.27,0v-105.92c3.85-.53,7.01,1.64,10.35,3.18,167.24,76.94,341.76,132.16,520.9,173.14,16.3,3.73,19.72,10.02,19.53,25.45Z"/>
  <path class="cls-2" d="M255.68,445.39c1.41,72.31-2.28,144.68,2.63,216.96,9.86,145.1,56.99,276.38,144.53,392.99,81.67,108.79,188.12,188.23,303.22,257.56,1.24.75,2.75,1.05,4.32,1.25.58.08,1.16.15,1.74.21v115.06c-3.47,1.26-6.57-2.02-9.32-3.61-123.28-71.05-240.26-150.47-335.11-258.24-119.45-135.72-187.88-293.63-205-473.9-5.41-56.98-3.27-113.98-4.01-170.98-.64-49.98-.46-99.98-1.38-149.96-.21-11.25,2.68-16.76,14.28-19.36,181.53-40.68,358.01-96.78,527.65-173.62,3.65-1.66,7.74-2.34,11.62-3.48.43-.13.86-.22,1.27-.27v105.92c-.55.03-1.09.1-1.63.18h-.01c-4.54.71-8.6,3.03-12.76,4.91-55.15,25.03-111.76,46.38-168.77,66.72-84.75,30.22-171.27,54.54-258.46,76.5-8.48,2.14-15.04,3.52-14.81,15.16Z"/>
  <path class="cls-1" d="M715.12,1427.15c-1.14.13-2.13.08-3-.12v-3.15c.66,1.18,1.62,2.28,3,3.27Z"/>
  <path class="cls-2" d="M715.12,1427.15c-1.03,1.2-2.03,1.91-3,2.27v-5.54c.66,1.18,1.62,2.28,3,3.27Z"/>
  <path class="cls-5" d="M717.63,1243.3c.46-.34.91-.72,1.35-1.1-.44.38-.89.75-1.35,1.1ZM710.95,346.66c.42.44.81.88,1.17,1.34v-.87c-.39-.16-.78-.31-1.17-.47ZM707.28,900.31s-.01.03-.01.05c.01-.01.02-.03.03-.04-.01,0-.01-.01-.02-.01Z"/>
  <path class="cls-2" d="M505.36,755c11.98-11.22,23.32-23.24,33.96-35.75,7.88-9.25,13.23-9.69,21.91-.38,26.83,28.8,55.03,56.33,81.78,85.21,8.83,9.53,13.63,9.09,21.09-.86,9.11-12.14,19.66-23.19,29.59-34.72,6.14-6.73,12.28-13.46,18.43-20.19v-400.31c-.36-.46-.75-.9-1.17-1.34-19.53,7.91-39.11,15.71-58.59,23.75-104.88,43.29-212.83,77.27-322.32,106.61-7.29,1.96-14.65,2.73-14.4,13.83,1.53,68.12-2.7,136.31,5.7,204.31,31.06,251.51,177.3,421.59,385.94,547.84.22.18.44.34.66.5.88.61,1.7,1.05,2.48,1.32.39.14.77.24,1.15.31.18.03.37.05.55.07v-384.33c-4.97,5.55-9.94,11.1-14.92,16.65-2.72,3.03-5.04,6.42-7.55,9.64-8.26,8.27-17.32,15.9-24.56,24.99-7.26,9.1-11.76,7.49-19.1-.04-46.35-47.55-93.09-94.71-139.9-141.81-5.37-5.4-7.59-8.86-.73-15.3ZM707.28,900.31s0,.01.02.01c-.01,0-.02.03-.03.04,0-.02.01-.03.01-.05Z"/>
  <path class="cls-6" d="M707.3,900.32s-.02.03-.03.04c0-.02.01-.03.01-.05,0,0,0,.01.02.01Z"/>
  <path class="cls-3" d="M1090.61,755.06c-34.29,162.03-120.09,291.81-246.91,396.18-38.21,31.45-78.29,60.27-119.95,86.89-.74.47-1.47,1.07-2.2,1.73-.42.37-.84.77-1.27,1.16-.11.1-.21.2-.32.3-.22.19-.43.39-.65.59-.11.1-.22.19-.33.29-.44.38-.89.75-1.35,1.1-.23.17-.47.33-.7.49-.23.15-.47.3-.72.44-1.1.6-2.26,1-3.53,1-.19,0-.37-.01-.56-.03v-384.33c68.02-75.9,135.9-151.94,204.56-227.27,9.55-10.48,8.12-15.28-1.45-23.03-10.95-8.86-21.57-18.32-31.13-28.63-8.79-9.48-14.5-7.5-21.76,1.53-8.45,10.53-18.11,20.08-27.23,30.07-41,44.92-82,89.85-122.99,134.77v-401.18c5.84,2.35,11.67,4.68,17.51,7.02,5.08,2.04,10.17,4.07,15.25,6.11,10.92,4.37,21.84,8.77,32.73,13.23,100.76,41.27,204.24,74.35,309.2,103.02,7.83,2.13,17.87,1.36,17.81,14.76-.36,88.17,4.46,176.55-14.01,263.79Z"/>
  <path class="cls-3" d="M718.98,1242.2c-.44.38-.89.76-1.35,1.1.46-.35.91-.72,1.35-1.1Z"/>
  <path class="cls-3" d="M707.3,900.32s-.02.03-.03.04c0-.02.01-.03.01-.05,0,0,0,.01.02.01Z"/>
  <path class="cls-3" d="M712.12,347.13v.87c-.36-.46-.75-.9-1.17-1.34.39.16.78.31,1.17.47Z"/>
  <path class="cls-4" d="M707.3,900.32s-.02.03-.03.04c0-.02.01-.03.01-.05,0,0,0,.01.02.01Z"/>
  <path class="cls-3" d="M1419.91,638.99c-9.89,308.95-139.9,559.84-376.49,756.72-127.77,106.33-276.72,186.38-317.01,206.78-3.34,1.69-6.1,3.07-7.93,3.99-1.53.59-3.1,1.24-4.7,1.96-.56.25-1.12.51-1.66.76v-111.73c.75.1,1.52.16,2.3.18,5.98-3.69,11.87-7.52,17.95-11.04,89.64-51.85,177.38-106.46,256.42-173.97,218.15-186.33,333.72-420.71,333.24-709.69-.16-92.95-.23-185.91.42-278.86.09-12.45-3.43-16.98-15.55-19.54-64.39-13.58-128.27-29.31-191.69-46.95-137.81-38.33-271.96-86.44-400.81-148.85-.78-.02-1.54.01-2.28.07V.03c4.57-.35,8.12,2.63,11.87,4.49,190.8,94.19,391.51,159.2,599.23,203.55,28.16,6.02,56.26,12.41,84.59,17.5,10.48,1.88,13.1,6.35,13.08,16.32-.31,132.38,3.25,264.86-.98,397.1Z"/>
</svg>